<?xml version="1.0" encoding="UTF-8"?>
<svg xmlns="http://www.w3.org/2000/svg" xmlns:xlink="http://www.w3.org/1999/xlink" viewBox="0 0 48 48" width="48px" height="48px">
<g id="surface31351970">
<path style=" stroke:none;fill-rule:nonzero;fill:#4B7BB2;fill-opacity:1;" d="M 18.371094 44.753906 C 15.601562 44.753906 13.410156 44.800781 11.632812 43.980469 C 10.410156 43.417969 9.4375 42.765625 8.433594 42.011719 C 7.640625 41.414062 6.207031 40.238281 5.40625 38.933594 C 4.925781 38.148438 4.773438 37.3125 4.554688 36.585938 C 3.058594 31.539062 3.699219 26.144531 3.273438 21.175781 C 3.085938 18.960938 3.4375 16.707031 3.660156 14.511719 C 3.707031 14.054688 3.761719 13.59375 3.839844 13.132812 C 4.082031 11.71875 4.546875 10.4375 5.222656 9.328125 C 5.671875 8.589844 6.234375 7.890625 6.894531 7.25 C 7.882812 6.300781 9.027344 5.53125 10.300781 4.964844 C 12.457031 4.007812 14.605469 3.769531 16.796875 3.59375 L 20.628906 3.296875 C 22.996094 3.105469 25.480469 2.902344 27.992188 2.992188 C 30.148438 3.070312 32.25 3.222656 34.195312 3.378906 C 35.054688 3.445312 36.121094 3.527344 37.265625 3.914062 C 39.0625 4.523438 40.691406 5.789062 41.851562 7.484375 C 42.703125 8.722656 43.597656 9.949219 44.011719 11.695312 C 44.523438 13.847656 44.316406 16.144531 44.378906 17.96875 C 44.398438 18.519531 44.417969 19.0625 44.445312 19.605469 C 44.507812 20.878906 44.566406 22.152344 44.601562 23.421875 C 44.695312 26.457031 44.660156 28.988281 44.496094 31.382812 C 44.300781 34.292969 44.40625 38.050781 41.992188 40.617188 C 38.675781 44.148438 33.269531 45.011719 29.941406 45.054688 L 29.59375 45.054688 C 29.589844 45.054688 28.925781 45.050781 28.601562 45.042969 L 27.742188 45.035156 C 26.398438 45.039062 25.050781 44.652344 23.660156 44.777344 C 22.46875 44.886719 21.410156 44.652344 20.339844 44.703125 C 19.714844 44.730469 19.050781 44.753906 18.371094 44.753906 Z M 26.6875 6.507812 C 24.742188 6.507812 22.777344 6.664062 20.878906 6.820312 L 17.042969 7.121094 C 15.148438 7.273438 13.476562 7.527344 11.796875 8.277344 C 10.871094 8.683594 10.136719 9.15625 9.429688 9.835938 C 8.972656 10.277344 8.601562 10.765625 8.296875 11.265625 C 7.839844 12.023438 7.503906 12.605469 7.332031 13.609375 C 7.269531 13.988281 7.226562 14.375 7.1875 14.757812 C 6.972656 16.867188 6.847656 19.015625 6.816406 21.144531 C 6.746094 25.863281 6.875 30.867188 8.246094 35.484375 C 8.394531 35.984375 8.632812 36.355469 8.929688 36.84375 C 9.402344 37.613281 10.125 38.160156 10.761719 38.640625 C 11.652344 39.308594 12.464844 39.894531 13.394531 40.320312 C 14.726562 40.933594 16.195312 41.007812 18.472656 41.007812 C 19.101562 41.007812 19.714844 40.984375 20.289062 40.960938 C 21.335938 40.910156 22.382812 40.816406 23.429688 40.722656 C 24.921875 40.585938 26.308594 40.460938 27.796875 40.457031 C 28.054688 40.457031 28.308594 40.460938 28.5625 40.464844 L 28.710938 40.46875 C 29.027344 40.472656 29.335938 40.476562 29.644531 40.476562 L 29.96875 40.476562 C 32.6875 40.441406 36.265625 40.261719 38.726562 37.648438 C 40.429688 35.835938 40.644531 33.511719 40.800781 31.179688 C 40.953125 28.894531 40.988281 26.464844 40.902344 23.539062 C 40.863281 22.289062 40.808594 21.039062 40.746094 19.789062 C 40.714844 19.226562 40.695312 18.664062 40.679688 18.097656 C 40.621094 16.429688 40.628906 14.625 40.191406 12.796875 C 39.871094 11.449219 39.304688 10.554688 38.6875 9.65625 C 37.925781 8.546875 37.292969 7.734375 36.167969 7.355469 C 35.414062 7.097656 34.652344 7.023438 33.902344 6.964844 C 31.992188 6.8125 29.960938 6.601562 27.863281 6.523438 C 27.46875 6.511719 27.078125 6.507812 26.6875 6.507812 Z M 26.6875 6.507812 "/>
<path style=" stroke:none;fill-rule:nonzero;fill:rgb(0.392157%,0.392157%,0.392157%);fill-opacity:1;" d="M 18.363281 41.414062 C 16.484375 41.414062 14.636719 41.226562 13.101562 40.519531 C 12.167969 40.089844 11.363281 39.507812 10.480469 38.84375 C 9.84375 38.363281 9.125 37.820312 8.65625 37.058594 C 8.355469 36.570312 8.183594 36.023438 8.042969 35.550781 C 6.671875 30.941406 6.546875 25.941406 6.613281 21.226562 C 6.644531 19.097656 6.769531 16.953125 6.984375 14.847656 C 7.023438 14.464844 7.066406 14.078125 7.128906 13.695312 C 7.304688 12.695312 7.621094 11.808594 8.074219 11.058594 C 8.375 10.566406 8.757812 10.09375 9.214844 9.652344 C 9.914062 8.976562 10.738281 8.425781 11.65625 8.019531 C 13.328125 7.277344 15.167969 7.078125 17.0625 6.925781 L 20.894531 6.625 C 23.171875 6.441406 25.535156 6.246094 27.871094 6.332031 C 29.960938 6.40625 32.019531 6.558594 33.933594 6.707031 C 34.675781 6.765625 35.445312 6.824219 36.195312 7.078125 C 37.308594 7.457031 38.339844 8.269531 39.09375 9.371094 C 39.710938 10.269531 40.164062 11.355469 40.484375 12.695312 C 40.921875 14.53125 40.984375 16.417969 41.039062 18.085938 L 41.046875 18.242188 C 41.0625 18.753906 41.082031 19.265625 41.105469 19.773438 C 41.171875 21.023438 41.226562 22.273438 41.265625 23.523438 C 41.351562 26.464844 41.320312 28.886719 41.164062 31.15625 C 41.007812 33.476562 40.617188 36.097656 38.925781 37.898438 C 36.480469 40.5 32.578125 40.847656 29.859375 40.882812 C 29.453125 40.886719 29.046875 40.878906 28.640625 40.871094 C 28.300781 40.867188 27.976562 40.863281 27.625 40.863281 C 26.1875 40.867188 24.722656 41 23.304688 41.128906 C 22.285156 41.222656 21.234375 41.316406 20.1875 41.363281 C 19.582031 41.394531 18.972656 41.414062 18.363281 41.414062 Z M 26.710938 7.3125 C 24.792969 7.3125 22.855469 7.46875 20.976562 7.621094 L 17.144531 7.921875 C 15.269531 8.074219 13.59375 8.253906 12.0625 8.933594 C 11.253906 9.292969 10.527344 9.777344 9.910156 10.371094 C 9.515625 10.753906 9.1875 11.160156 8.933594 11.578125 C 8.542969 12.222656 8.269531 12.992188 8.117188 13.863281 C 8.054688 14.222656 8.015625 14.585938 7.980469 14.949219 C 7.769531 17.027344 7.644531 19.140625 7.613281 21.238281 C 7.546875 25.878906 7.667969 30.785156 9.003906 35.265625 C 9.128906 35.699219 9.273438 36.152344 9.511719 36.535156 C 9.878906 37.136719 10.488281 37.597656 11.082031 38.042969 C 11.917969 38.671875 12.679688 39.226562 13.519531 39.613281 C 15.359375 40.457031 17.789062 40.472656 20.144531 40.367188 C 21.164062 40.320312 22.207031 40.226562 23.21875 40.136719 C 24.65625 40.003906 26.140625 39.871094 27.621094 39.863281 C 27.96875 39.863281 28.3125 39.871094 28.65625 39.875 C 29.054688 39.882812 29.449219 39.890625 29.84375 39.882812 C 32.597656 39.847656 36.035156 39.515625 38.195312 37.214844 C 39.675781 35.644531 40.023438 33.234375 40.167969 31.089844 C 40.320312 28.855469 40.351562 26.460938 40.265625 23.554688 C 40.226562 22.3125 40.171875 21.066406 40.109375 19.824219 C 40.085938 19.308594 40.066406 18.792969 40.046875 18.277344 L 40.042969 18.117188 C 39.988281 16.5 39.925781 14.667969 39.511719 12.929688 C 39.222656 11.710938 38.816406 10.730469 38.273438 9.941406 C 37.640625 9.015625 36.789062 8.335938 35.878906 8.027344 C 35.242188 7.816406 34.539062 7.757812 33.855469 7.707031 C 31.953125 7.558594 29.90625 7.40625 27.839844 7.335938 C 27.464844 7.320312 27.085938 7.3125 26.710938 7.3125 Z M 26.710938 7.3125 "/>
<path style=" stroke:none;fill-rule:nonzero;fill:rgb(0.392157%,0.392157%,0.392157%);fill-opacity:1;" d="M 26.160156 45.546875 C 25.164062 45.546875 24.167969 45.523438 23.175781 45.472656 C 22.273438 45.429688 21.363281 45.332031 20.484375 45.238281 C 19.597656 45.144531 18.679688 45.046875 17.785156 45.007812 L 16.792969 44.96875 C 15.3125 44.910156 13.78125 44.855469 12.273438 44.609375 C 11.320312 44.453125 10.3125 44.234375 9.429688 43.703125 C 8.789062 43.320312 8.277344 42.808594 7.78125 42.316406 L 5.894531 40.449219 C 5.433594 39.992188 4.957031 39.519531 4.597656 38.925781 C 4.175781 38.226562 3.976562 37.445312 3.835938 36.777344 C 3.339844 34.410156 3.3125 31.992188 3.355469 29.730469 C 3.382812 28.332031 3.261719 26.914062 3.144531 25.542969 C 3.074219 24.730469 3.007812 23.917969 2.964844 23.097656 C 2.859375 21.058594 2.800781 18.984375 2.78125 16.941406 C 2.761719 14.46875 2.835938 11.871094 3.964844 9.628906 C 5.019531 7.535156 7.007812 5.789062 9.570312 4.710938 C 11.976562 3.691406 14.570312 3.351562 16.789062 3.148438 C 17.550781 3.082031 18.3125 3.007812 19.070312 2.933594 C 20.652344 2.777344 22.285156 2.617188 23.902344 2.511719 C 25.546875 2.40625 27.246094 2.539062 28.890625 2.671875 C 29.578125 2.722656 30.261719 2.777344 30.933594 2.816406 C 33.734375 2.964844 36.90625 3.136719 39.605469 4.601562 C 42.316406 6.070312 44.269531 8.761719 44.832031 11.792969 C 45.105469 13.257812 45.140625 14.742188 45.140625 15.867188 C 45.140625 16.453125 45.132812 17.035156 45.121094 17.617188 C 45.113281 18.1875 45.101562 18.753906 45.101562 19.3125 C 45.101562 20.597656 45.136719 21.902344 45.171875 23.207031 C 45.246094 26.015625 45.320312 28.921875 45.050781 31.722656 C 44.808594 34.214844 44.289062 36.671875 43.507812 39.027344 C 43.320312 39.585938 43.105469 40.175781 42.730469 40.6875 C 42.324219 41.234375 41.773438 41.636719 41.289062 41.988281 C 40.042969 42.894531 38.757812 43.828125 37.253906 44.367188 C 36.214844 44.742188 35.109375 44.90625 34.152344 45.027344 C 31.511719 45.371094 28.832031 45.546875 26.160156 45.546875 Z M 25.167969 3.476562 C 24.761719 3.476562 24.363281 3.488281 23.96875 3.511719 C 22.367188 3.617188 20.738281 3.777344 19.164062 3.929688 C 18.402344 4.003906 17.640625 4.078125 16.878906 4.148438 C 14.734375 4.339844 12.238281 4.667969 9.957031 5.632812 C 7.613281 6.621094 5.804688 8.199219 4.859375 10.078125 C 3.828125 12.121094 3.761719 14.484375 3.78125 16.933594 C 3.800781 18.960938 3.859375 21.019531 3.964844 23.046875 C 4.003906 23.855469 4.074219 24.65625 4.140625 25.457031 C 4.261719 26.851562 4.382812 28.300781 4.355469 29.746094 C 4.3125 31.949219 4.339844 34.300781 4.816406 36.570312 C 4.9375 37.160156 5.109375 37.839844 5.453125 38.40625 C 5.75 38.894531 6.183594 39.324219 6.601562 39.738281 L 8.484375 41.605469 C 8.941406 42.054688 9.410156 42.519531 9.945312 42.84375 C 10.683594 43.285156 11.578125 43.476562 12.4375 43.617188 C 13.882812 43.855469 15.378906 43.910156 16.828125 43.964844 L 17.832031 44.003906 C 18.757812 44.046875 19.691406 44.144531 20.59375 44.242188 C 21.460938 44.335938 22.351562 44.429688 23.226562 44.472656 C 26.824219 44.644531 30.457031 44.5 34.027344 44.035156 C 34.929688 43.917969 35.972656 43.765625 36.917969 43.425781 C 38.285156 42.933594 39.515625 42.042969 40.703125 41.179688 C 41.148438 40.855469 41.613281 40.515625 41.925781 40.09375 C 42.21875 39.695312 42.398438 39.191406 42.5625 38.707031 C 43.320312 36.425781 43.824219 34.042969 44.058594 31.625 C 44.324219 28.882812 44.246094 26.011719 44.175781 23.234375 C 44.140625 21.917969 44.105469 20.605469 44.105469 19.3125 C 44.105469 18.746094 44.113281 18.175781 44.125 17.601562 C 44.136719 17.023438 44.144531 16.445312 44.144531 15.867188 C 44.144531 14.78125 44.109375 13.359375 43.855469 11.972656 C 43.355469 9.277344 41.542969 6.785156 39.132812 5.476562 C 36.632812 4.121094 33.578125 3.957031 30.882812 3.8125 C 30.203125 3.773438 29.511719 3.71875 28.816406 3.664062 C 27.605469 3.574219 26.371094 3.476562 25.167969 3.476562 Z M 25.167969 3.476562 "/>
<path style=" stroke:none;fill-rule:nonzero;fill:#4B7BB2;fill-opacity:1;" d="M 35.84375 11.367188 C 35.085938 10.734375 33.90625 10.628906 32.992188 11.203125 C 32.300781 11.640625 32.140625 12.660156 32.519531 13.382812 C 33.160156 14.605469 35.398438 15.425781 36.296875 14.0625 C 36.59375 13.605469 36.667969 13.023438 36.542969 12.492188 C 36.429688 12.023438 36.179688 11.644531 35.84375 11.367188 Z M 35.84375 11.367188 "/>
<path style=" stroke:none;fill-rule:nonzero;fill:rgb(0.392157%,0.392157%,0.392157%);fill-opacity:1;" d="M 34.914062 15.269531 C 34.867188 15.269531 34.824219 15.265625 34.777344 15.265625 C 33.6875 15.210938 32.550781 14.519531 32.078125 13.617188 C 31.550781 12.613281 31.839844 11.339844 32.722656 10.78125 C 33.796875 10.105469 35.210938 10.1875 36.164062 10.980469 C 36.597656 11.34375 36.894531 11.824219 37.027344 12.378906 C 37.191406 13.066406 37.078125 13.78125 36.714844 14.335938 C 36.316406 14.9375 35.679688 15.269531 34.914062 15.269531 Z M 34.3125 11.328125 C 33.945312 11.328125 33.574219 11.425781 33.257812 11.625 C 32.820312 11.902344 32.679688 12.613281 32.964844 13.148438 C 33.273438 13.738281 34.09375 14.230469 34.828125 14.265625 C 35.285156 14.277344 35.652344 14.125 35.878906 13.785156 C 36.089844 13.464844 36.15625 13.023438 36.054688 12.609375 C 35.976562 12.269531 35.789062 11.972656 35.523438 11.75 C 35.1875 11.46875 34.753906 11.328125 34.3125 11.328125 Z M 34.3125 11.328125 "/>
<path style=" stroke:none;fill-rule:nonzero;fill:#4B7BB2;fill-opacity:1;" d="M 24.402344 33.832031 C 22.699219 33.832031 20.898438 34.042969 19.449219 33.257812 C 18.601562 32.796875 17.964844 32.359375 17.515625 31.953125 C 17.339844 31.796875 16.761719 31.285156 16.628906 31.199219 C 14.21875 29.6875 13.59375 26.058594 13.679688 23.773438 C 13.730469 22.371094 14.195312 21.234375 14.53125 20.410156 C 14.988281 19.277344 15.617188 17.71875 16.914062 16.398438 C 18.34375 14.941406 20.292969 14.0625 22.558594 13.859375 C 23.441406 13.777344 24.363281 13.804688 25.269531 13.9375 C 27.265625 14.226562 29.097656 14.957031 30.5625 16.050781 C 32.394531 17.417969 33.65625 19.332031 34.117188 21.441406 C 34.9375 25.214844 33.441406 29.472656 30.480469 31.792969 C 28.804688 33.109375 26.648438 33.832031 24.402344 33.832031 Z M 23.816406 17.515625 C 23.578125 17.515625 23.136719 17.664062 22.902344 17.683594 C 21.425781 17.816406 20.691406 17.824219 19.816406 18.71875 C 18.980469 19.570312 18.558594 20.691406 18.164062 21.671875 C 17.890625 22.339844 17.34375 23.175781 17.316406 23.996094 C 17.261719 25.359375 17.996094 26.777344 19.253906 27.566406 C 19.570312 27.765625 19.65625 28.257812 19.957031 28.523438 C 20.332031 28.863281 20.90625 28.980469 21.40625 29.253906 C 23.640625 30.460938 26.171875 30.292969 28.113281 28.769531 C 30.054688 27.25 30.90625 24.765625 30.363281 22.261719 C 30.074219 20.929688 29.554688 19.75 28.359375 18.855469 C 27.328125 18.089844 26.175781 17.949219 24.722656 17.738281 C 24.308594 17.679688 24.222656 17.515625 23.816406 17.515625 Z M 23.816406 17.515625 "/>
<path style=" stroke:none;fill-rule:nonzero;fill:rgb(0.392157%,0.392157%,0.392157%);fill-opacity:1;" d="M 24.398438 30.492188 C 23.285156 30.492188 22.160156 30.230469 21.167969 29.691406 C 20.675781 29.421875 20.277344 29.066406 19.898438 28.722656 C 19.59375 28.449219 19.308594 28.191406 18.988281 27.992188 C 17.746094 27.214844 16.96875 25.246094 17.019531 23.902344 C 17.050781 23.089844 17.355469 22.335938 17.625 21.667969 C 18.019531 20.691406 18.46875 19.582031 19.296875 18.734375 C 20.164062 17.855469 21.394531 17.316406 22.855469 17.1875 C 23.484375 17.128906 24.136719 17.148438 24.792969 17.242188 C 26.238281 17.453125 27.542969 17.964844 28.566406 18.730469 C 29.753906 19.613281 30.5625 20.828125 30.851562 22.152344 C 31.394531 24.640625 30.347656 27.65625 28.421875 29.164062 C 27.300781 30.042969 25.855469 30.492188 24.398438 30.492188 Z M 22.945312 18.183594 C 22.09375 18.261719 20.890625 18.539062 20.011719 19.4375 C 19.320312 20.140625 18.929688 21.109375 18.550781 22.042969 C 18.300781 22.664062 18.039062 23.300781 18.015625 23.941406 C 17.976562 24.960938 18.625 26.585938 19.519531 27.144531 C 19.914062 27.394531 20.246094 27.691406 20.566406 27.980469 C 20.921875 28.300781 21.253906 28.601562 21.644531 28.8125 C 23.566406 29.851562 26.15625 29.667969 27.804688 28.378906 C 29.449219 27.089844 30.339844 24.503906 29.875 22.367188 C 29.640625 21.296875 28.945312 20.261719 27.964844 19.53125 C 27.074219 18.867188 25.929688 18.417969 24.648438 18.234375 C 24.070312 18.152344 23.496094 18.132812 22.945312 18.183594 Z M 22.945312 18.183594 "/>
<path style=" stroke:none;fill-rule:nonzero;fill:rgb(0.392157%,0.392157%,0.392157%);fill-opacity:1;" d="M 23.863281 34.617188 C 22.15625 34.617188 20.507812 34.28125 19.015625 33.617188 C 16.199219 32.359375 14.132812 30.058594 13.484375 27.464844 C 12.988281 25.476562 13.324219 23.457031 13.671875 21.921875 C 13.953125 20.671875 14.425781 18.855469 15.234375 17.492188 C 15.929688 16.316406 16.871094 15.277344 17.960938 14.492188 C 18.664062 13.980469 19.394531 13.601562 20.117188 13.363281 C 20.121094 13.363281 20.210938 13.332031 20.21875 13.328125 C 22.296875 12.679688 24.589844 13.085938 26.429688 13.410156 C 28.863281 13.839844 31.402344 15.730469 32.835938 17.414062 C 33.226562 17.875 33.503906 18.273438 33.703125 18.675781 C 34.132812 19.53125 34.257812 20.480469 34.328125 21.375 C 34.53125 23.929688 34.3125 26.109375 33.660156 28.046875 C 32.628906 31.097656 30.667969 33.148438 27.984375 33.980469 C 26.609375 34.402344 25.21875 34.613281 23.863281 34.617188 Z M 20.367188 13.808594 L 20.4375 14.3125 C 19.800781 14.519531 19.167969 14.855469 18.542969 15.300781 C 17.566406 16.007812 16.71875 16.941406 16.09375 18.003906 C 15.359375 19.242188 14.914062 20.960938 14.648438 22.140625 C 14.324219 23.570312 14.007812 25.4375 14.453125 27.222656 C 15.027344 29.523438 16.886719 31.570312 19.425781 32.703125 C 21.878906 33.800781 24.816406 33.910156 27.691406 33.023438 C 30.675781 32.101562 32.070312 29.632812 32.710938 27.726562 C 33.320312 25.921875 33.523438 23.871094 33.332031 21.457031 C 33.269531 20.660156 33.160156 19.828125 32.808594 19.121094 C 32.644531 18.796875 32.410156 18.460938 32.074219 18.0625 C 30.800781 16.566406 28.433594 14.78125 26.257812 14.394531 C 24.433594 14.070312 22.363281 13.707031 20.519531 14.285156 Z M 20.367188 13.808594 L 20.378906 13.808594 Z M 20.367188 13.808594 "/>
</g>
</svg>
