<?xml version="1.0" encoding="UTF-8"?>
<svg xmlns="http://www.w3.org/2000/svg" xmlns:xlink="http://www.w3.org/1999/xlink" viewBox="0 0 48 48" width="48px" height="48px">
<g id="surface31461116">
<path style=" stroke:none;fill-rule:nonzero;fill:rgb(29.411766%,48.235294%,69.803923%);fill-opacity:1;" d="M 11.960938 41.917969 C 12.292969 42.164062 12.640625 42.390625 13.003906 42.589844 C 13.984375 43.117188 15.066406 43.417969 16.152344 43.664062 C 23.042969 45.230469 31.207031 45.265625 36.820312 40.355469 C 43.070312 34.882812 46.464844 25.261719 44.113281 17.179688 C 43.863281 16.316406 43.550781 15.472656 43.222656 14.636719 C 42.761719 13.460938 42.265625 12.296875 41.636719 11.203125 C 36.898438 2.925781 24.726562 0.222656 16.582031 4.269531 C 15.539062 4.789062 14.542969 5.394531 13.550781 6 C 11.292969 7.375 9.347656 9.167969 7.574219 11.132812 C 2.554688 16.683594 1.085938 24.6875 3.371094 31.503906 C 4.585938 35.128906 7.53125 37.910156 10.332031 40.519531 C 10.855469 41.007812 11.390625 41.492188 11.960938 41.917969 Z M 11.960938 41.917969 "/>
<path style=" stroke:none;fill-rule:nonzero;fill:rgb(0.392157%,0.392157%,0.392157%);fill-opacity:1;" d="M 24.050781 45.113281 C 21.203125 45.113281 18.4375 44.695312 16.039062 44.148438 C 14.964844 43.90625 13.820312 43.597656 12.765625 43.027344 C 12.398438 42.828125 12.035156 42.59375 11.664062 42.316406 C 11.105469 41.902344 10.59375 41.445312 9.992188 40.886719 C 7.261719 38.34375 4.171875 35.464844 2.894531 31.660156 C 0.503906 24.527344 2.195312 16.335938 7.203125 10.796875 C 9.253906 8.527344 11.242188 6.816406 13.289062 5.570312 C 14.28125 4.964844 15.300781 4.347656 16.359375 3.820312 C 24.304688 -0.128906 36.988281 2.085938 42.070312 10.953125 C 42.75 12.140625 43.269531 13.386719 43.6875 14.449219 C 43.964844 15.152344 44.316406 16.082031 44.59375 17.039062 C 46.902344 24.972656 43.773438 34.933594 37.148438 40.726562 C 33.359375 44.046875 28.601562 45.113281 24.050781 45.113281 Z M 24.96875 2.925781 C 22.046875 2.925781 19.199219 3.527344 16.804688 4.71875 C 15.785156 5.222656 14.785156 5.832031 13.820312 6.421875 C 11.847656 7.621094 9.929688 9.269531 7.945312 11.464844 C 3.175781 16.742188 1.566406 24.546875 3.84375 31.34375 C 5.039062 34.90625 8.03125 37.695312 10.675781 40.15625 C 11.25 40.691406 11.738281 41.128906 12.261719 41.515625 C 12.59375 41.765625 12.914062 41.972656 13.242188 42.148438 C 14.191406 42.664062 15.253906 42.945312 16.261719 43.175781 C 22.265625 44.539062 30.644531 45.089844 36.492188 39.976562 C 42.835938 34.425781 45.839844 24.898438 43.632812 17.320312 C 43.367188 16.402344 43.023438 15.5 42.757812 14.816406 C 42.351562 13.789062 41.851562 12.585938 41.203125 11.449219 C 37.917969 5.714844 31.261719 2.925781 24.96875 2.925781 Z M 24.96875 2.925781 "/>
<path style=" stroke:none;fill-rule:nonzero;fill:rgb(77.64706%,90.196079%,100%);fill-opacity:1;" d="M 33.953125 16.75 C 33.917969 16.71875 33.886719 16.679688 33.855469 16.632812 C 33.742188 16.449219 33.71875 16.230469 33.652344 16.023438 C 33.4375 15.34375 32.773438 14.878906 32.078125 14.703125 C 31.386719 14.527344 30.65625 14.59375 29.941406 14.660156 C 29.375 14.710938 28.800781 14.765625 28.269531 14.976562 C 27.710938 15.203125 27.234375 15.589844 26.8125 16.015625 C 25.714844 17.125 24.914062 18.566406 24.730469 20.117188 C 24.703125 20.335938 24.660156 20.597656 24.457031 20.6875 C 24.371094 20.726562 24.269531 20.71875 24.175781 20.710938 C 21.664062 20.527344 19.332031 19.417969 17.0625 18.324219 C 16.359375 17.988281 15.648438 17.644531 15.015625 17.179688 C 14.730469 16.96875 13.6875 15.597656 13.53125 16.234375 C 13.097656 18.011719 13.359375 19.949219 14.257812 21.546875 C 14.46875 21.925781 14.734375 22.300781 15.121094 22.5 C 14.46875 22.394531 13.8125 22.292969 13.160156 22.1875 C 13.097656 22.59375 13.039062 23.019531 13.175781 23.40625 C 13.261719 23.648438 13.417969 23.855469 13.570312 24.0625 C 14.015625 24.648438 14.460938 25.234375 14.90625 25.824219 C 15.21875 26.238281 15.539062 26.660156 15.957031 26.96875 C 16.375 27.277344 16.914062 27.464844 17.421875 27.34375 C 16.769531 27.535156 16.078125 27.585938 15.40625 27.496094 C 15.59375 28.492188 16.195312 29.40625 17.035156 29.980469 C 17.875 30.550781 18.945312 30.773438 19.945312 30.582031 C 19.558594 31.167969 18.910156 31.519531 18.269531 31.8125 C 17.324219 32.246094 16.347656 32.609375 15.347656 32.894531 C 14.828125 33.042969 14.304688 33.171875 13.777344 33.277344 C 13.625 33.308594 13.027344 33.324219 12.933594 33.429688 C 12.84375 33.539062 12.792969 33.796875 13.035156 33.871094 C 13.109375 33.894531 13.1875 33.929688 13.265625 33.953125 C 16.367188 34.96875 19.90625 35.945312 23.179688 35.257812 C 24.964844 34.882812 26.605469 34.015625 28.160156 33.058594 C 28.9375 32.578125 29.707031 32.070312 30.359375 31.433594 C 31.34375 30.464844 32.027344 29.230469 32.648438 27.996094 C 33.320312 26.671875 33.941406 25.316406 34.390625 23.898438 C 34.625 23.160156 34.8125 22.40625 34.933594 21.644531 C 34.980469 21.335938 34.921875 20.929688 34.976562 20.660156 C 35.0625 20.21875 35.550781 20.261719 35.851562 19.9375 C 36.515625 19.21875 37.058594 18.390625 37.453125 17.496094 C 36.671875 17.746094 36.03125 18.398438 35.214844 18.492188 C 35.875 17.734375 36.339844 16.808594 36.546875 15.824219 C 36.449219 16.289062 35.316406 16.671875 34.929688 16.753906 C 34.621094 16.820312 34.210938 16.972656 33.953125 16.75 Z M 33.953125 16.75 "/>
<path style=" stroke:none;fill-rule:nonzero;fill:rgb(0.392157%,0.392157%,0.392157%);fill-opacity:1;" d="M 20.871094 35.988281 C 18.304688 35.988281 15.648438 35.257812 13.109375 34.429688 L 12.886719 34.351562 C 12.640625 34.273438 12.457031 34.09375 12.386719 33.855469 C 12.3125 33.605469 12.378906 33.308594 12.554688 33.105469 C 12.742188 32.886719 13.039062 32.847656 13.507812 32.804688 C 13.582031 32.800781 13.644531 32.792969 13.679688 32.789062 C 14.191406 32.683594 14.703125 32.558594 15.207031 32.414062 C 16.183594 32.136719 17.144531 31.78125 18.0625 31.355469 C 18.234375 31.277344 18.410156 31.191406 18.578125 31.101562 C 17.929688 31.003906 17.300781 30.765625 16.753906 30.390625 C 15.800781 29.742188 15.128906 28.722656 14.914062 27.585938 C 14.882812 27.429688 14.929688 27.265625 15.039062 27.148438 C 15.101562 27.085938 15.175781 27.042969 15.253906 27.015625 C 14.964844 26.730469 14.726562 26.410156 14.507812 26.121094 L 13.175781 24.359375 C 13.015625 24.152344 12.820312 23.890625 12.703125 23.570312 C 12.519531 23.054688 12.601562 22.53125 12.667969 22.109375 C 12.6875 21.976562 12.757812 21.859375 12.867188 21.78125 C 12.972656 21.703125 13.105469 21.671875 13.238281 21.691406 L 13.816406 21.78125 C 12.863281 20.078125 12.582031 18.011719 13.046875 16.109375 C 13.140625 15.726562 13.414062 15.613281 13.527344 15.585938 C 14.050781 15.445312 14.53125 15.960938 15.046875 16.503906 C 15.160156 16.621094 15.253906 16.726562 15.316406 16.773438 C 15.917969 17.21875 16.640625 17.566406 17.277344 17.871094 C 19.480469 18.933594 21.761719 20.027344 24.210938 20.210938 C 24.214844 20.1875 24.222656 20.128906 24.230469 20.054688 C 24.417969 18.480469 25.210938 16.921875 26.457031 15.660156 C 27.015625 15.097656 27.53125 14.730469 28.082031 14.511719 C 28.6875 14.269531 29.328125 14.210938 29.894531 14.15625 C 30.605469 14.09375 31.414062 14.015625 32.199219 14.214844 C 33.140625 14.453125 33.882812 15.089844 34.128906 15.871094 C 34.152344 15.945312 34.171875 16.019531 34.191406 16.097656 C 34.21875 16.203125 34.242188 16.304688 34.277344 16.363281 C 34.355469 16.371094 34.558594 16.328125 34.667969 16.300781 L 34.820312 16.265625 C 35.308594 16.160156 35.972656 15.855469 36.070312 15.6875 C 36.128906 15.417969 36.394531 15.257812 36.65625 15.320312 C 36.929688 15.378906 37.09375 15.65625 37.035156 15.929688 C 36.929688 16.421875 36.765625 16.90625 36.550781 17.359375 C 36.785156 17.230469 37.03125 17.105469 37.304688 17.019531 C 37.492188 16.964844 37.699219 17.019531 37.828125 17.164062 C 37.960938 17.3125 37.992188 17.519531 37.910156 17.699219 C 37.492188 18.648438 36.921875 19.515625 36.21875 20.277344 C 36.03125 20.480469 35.808594 20.585938 35.644531 20.660156 C 35.582031 20.691406 35.484375 20.734375 35.460938 20.761719 C 35.449219 20.84375 35.449219 20.996094 35.453125 21.144531 C 35.453125 21.34375 35.453125 21.546875 35.425781 21.722656 C 35.308594 22.46875 35.121094 23.25 34.867188 24.046875 C 34.363281 25.636719 33.65625 27.113281 33.097656 28.222656 C 32.503906 29.398438 31.78125 30.738281 30.707031 31.789062 C 30.019531 32.464844 29.199219 33.003906 28.421875 33.484375 C 26.976562 34.371094 25.238281 35.335938 23.277344 35.746094 C 22.492188 35.914062 21.6875 35.988281 20.871094 35.988281 Z M 14.152344 33.710938 C 17.011719 34.617188 20.148438 35.382812 23.074219 34.769531 C 24.882812 34.390625 26.527344 33.476562 27.898438 32.632812 C 28.742188 32.113281 29.421875 31.648438 30.007812 31.074219 C 30.972656 30.128906 31.644531 28.875 32.203125 27.769531 C 32.746094 26.695312 33.429688 25.265625 33.910156 23.746094 C 34.148438 22.996094 34.328125 22.261719 34.4375 21.566406 C 34.457031 21.441406 34.453125 21.292969 34.449219 21.152344 C 34.449219 20.957031 34.445312 20.75 34.484375 20.5625 C 34.585938 20.050781 34.980469 19.867188 35.21875 19.753906 C 35.328125 19.703125 35.425781 19.65625 35.484375 19.597656 C 35.746094 19.3125 35.992188 19.007812 36.210938 18.691406 C 35.925781 18.835938 35.617188 18.949219 35.269531 18.988281 C 35.054688 19.011719 34.867188 18.90625 34.769531 18.726562 C 34.671875 18.542969 34.699219 18.320312 34.835938 18.164062 C 35.121094 17.835938 35.367188 17.472656 35.566406 17.085938 C 35.265625 17.191406 35.039062 17.242188 35.03125 17.242188 L 34.90625 17.273438 C 34.5625 17.355469 34.042969 17.484375 33.628906 17.128906 C 33.628906 17.128906 33.625 17.128906 33.625 17.128906 C 33.550781 17.0625 33.484375 16.980469 33.429688 16.890625 C 33.308594 16.703125 33.261719 16.5 33.21875 16.335938 C 33.207031 16.28125 33.191406 16.226562 33.175781 16.171875 C 33.003906 15.628906 32.433594 15.308594 31.953125 15.1875 C 31.339844 15.03125 30.652344 15.09375 29.988281 15.15625 C 29.464844 15.203125 28.921875 15.253906 28.453125 15.4375 C 28.035156 15.605469 27.628906 15.902344 27.167969 16.367188 C 26.078125 17.46875 25.386719 18.820312 25.222656 20.171875 C 25.195312 20.402344 25.132812 20.933594 24.660156 21.140625 C 24.449219 21.234375 24.246094 21.21875 24.132812 21.207031 C 21.5 21.011719 19.027344 19.824219 16.847656 18.773438 C 16.171875 18.449219 15.402344 18.082031 14.722656 17.578125 C 14.636719 17.515625 14.492188 17.367188 14.324219 17.191406 C 14.234375 17.097656 14.074219 16.929688 13.929688 16.789062 C 13.660156 18.320312 13.933594 19.941406 14.695312 21.300781 C 14.847656 21.570312 15.058594 21.902344 15.351562 22.054688 C 15.570312 22.164062 15.675781 22.417969 15.597656 22.652344 C 15.523438 22.886719 15.292969 23.027344 15.042969 22.992188 L 13.597656 22.761719 C 13.589844 22.933594 13.597656 23.097656 13.648438 23.238281 C 13.710938 23.414062 13.84375 23.589844 13.972656 23.757812 L 15.304688 25.523438 C 15.59375 25.902344 15.890625 26.296875 16.253906 26.566406 C 16.601562 26.820312 16.992188 26.929688 17.308594 26.859375 C 17.570312 26.796875 17.839844 26.960938 17.90625 27.21875 C 17.972656 27.484375 17.820312 27.75 17.5625 27.824219 C 17.085938 27.964844 16.582031 28.035156 16.085938 28.039062 C 16.335938 28.652344 16.765625 29.191406 17.316406 29.566406 C 18.050781 30.066406 18.976562 30.257812 19.851562 30.089844 C 20.046875 30.054688 20.246094 30.136719 20.359375 30.304688 C 20.472656 30.46875 20.472656 30.6875 20.363281 30.855469 C 19.914062 31.542969 19.191406 31.941406 18.480469 32.265625 C 17.515625 32.710938 16.507812 33.085938 15.484375 33.378906 C 15.042969 33.503906 14.597656 33.613281 14.152344 33.710938 Z M 34.277344 16.371094 L 33.953125 16.75 Z M 34.277344 16.371094 "/>
</g>
</svg>
